<mxfile host="app.diagrams.net" modified="2023-10-20T17:24:13.232Z" agent="Mozilla/5.0 (X11; Linux x86_64; rv:109.0) Gecko/20100101 Firefox/111.0" version="22.0.6" etag="AD6KnHlzfG_VvRJG9wa2" type="github">
  <diagram name="PÃ¡gina-1" id="7fpegMUsTK98_PdM95w9">
    <mxGraphModel>
      <root>
        <mxCell id="0" />
        <mxCell id="1" parent="0" />
      </root>
    </mxGraphModel>
  </diagram>
</mxfile>
